<svg xmlns="http://www.w3.org/2000/svg" viewBox="0 0 5789 2454.14"><defs><style>.cls-1{fill:#fff;}.cls-2{fill:#da291c;}</style></defs><title>Asset 1</title><g id="Layer_2" data-name="Layer 2"><g id="Layer_1-2" data-name="Layer 1"><path class="cls-1" d="M1201.6,1309.65a48.13,48.13,0,1,1-48.12-48.14A48.13,48.13,0,0,1,1201.6,1309.65Z"/><path class="cls-2" d="M23.32,649.48A42.75,42.75,0,1,1,4.68,707,42.76,42.76,0,0,1,23.32,649.48Z"/><path class="cls-2" d="M23.32,364.13A42.75,42.75,0,1,1,4.68,421.65,42.76,42.76,0,0,1,23.32,364.13Z"/><path class="cls-2" d="M560.24,968.57a42.75,42.75,0,1,1-18.64,57.52A42.76,42.76,0,0,1,560.24,968.57Z"/><path class="cls-2" d="M3094.25,693.78a42.75,42.75,0,1,1,20.45,56.9A42.76,42.76,0,0,1,3094.25,693.78Z"/><path class="cls-2" d="M1558.52,988.42a42.75,42.75,0,1,1,20.45,56.9A42.76,42.76,0,0,1,1558.52,988.42Z"/><path class="cls-2" d="M2143.2,689.28a42.76,42.76,0,1,1-42.76-42.76A42.77,42.77,0,0,1,2143.2,689.28Z"/><path class="cls-2" d="M2655.79,1000.4A42.76,42.76,0,1,1,2613,957.64,42.77,42.77,0,0,1,2655.79,1000.4Z"/><path class="cls-2" d="M1086.06,1947.32c-343.3,0-622.59-279.29-622.59-622.59a621.45,621.45,0,0,1,90.6-323.6l16.86,10.28a601.6,601.6,0,0,0-87.72,313.32c0,332.42,270.44,602.86,602.86,602.86,212.55,0,411.71-113.89,519.76-297.24a603.46,603.46,0,0,0-11.67-630.21l16.63-10.64a623.2,623.2,0,0,1,12,650.87C1511.25,1829.7,1305.58,1947.32,1086.06,1947.32Z"/><polygon class="cls-2" points="4638.18 1014.96 3142.82 60.76 3142.82 712 3123.09 712 3123.09 24.76 4648.79 998.32 4638.18 1014.96"/><polygon class="cls-2" points="574.64 1015.13 32.89 693.18 32.89 402.21 52.63 402.21 52.63 681.95 584.73 998.17 574.64 1015.13"/><polygon class="cls-2" points="1602.45 1014.99 1591.93 998.3 2100.34 677.68 2618.15 991.96 2607.91 1008.83 2100.54 700.88 1602.45 1014.99"/><path class="cls-2" d="M3094.29,24.54a42.75,42.75,0,1,1,20.45,56.9A42.76,42.76,0,0,1,3094.29,24.54Z"/><path class="cls-2" d="M4605.22,986.33a42.75,42.75,0,1,1,20.45,56.9A42.76,42.76,0,0,1,4605.22,986.33Z"/><path class="cls-2" d="M5127.73,1919.23a42.75,42.75,0,1,1,20.45,56.9A42.76,42.76,0,0,1,5127.73,1919.23Z"/><path class="cls-2" d="M5124.88,2401.09a42.78,42.78,0,1,1,18.06,46A42.81,42.81,0,0,1,5124.88,2401.09Z"/><path class="cls-2" d="M1200.82,1357.24l-39.94-19-51,60.8-4.21-45.21h-25.1L1076.4,1399l-51-60.8-39.93,19c-48.24,23-57.3,106.18-57.3,106.18h329.92S1249.07,1380.25,1200.82,1357.24Z"/><path class="cls-2" d="M1180.35,1228.32a117.88,117.88,0,0,0,1.89-20.41,89.08,89.08,0,0,0-178.16,0,117.72,117.72,0,0,0,1.89,20.41c-5.32,3.81-11.35,10.85-10,22.95,1.49,13.38,14.11,26.2,31.68,30.37,15.62,22.86,38.22,39.55,65.52,39.55s49.91-16.68,65.52-39.55c17.57-4.17,30.2-17,31.68-30.37C1191.7,1239.17,1185.67,1232.13,1180.35,1228.32Z"/><path class="cls-2" d="M3132.92,1947.32c-343.3,0-622.59-279.29-622.59-622.59a620.6,620.6,0,0,1,97.26-334.27l16.64,10.61a600.89,600.89,0,0,0-94.16,323.66c0,332.42,270.44,602.86,602.86,602.86s602.86-270.44,602.86-602.86-270.44-602.86-602.86-602.86V702.13c343.3,0,622.59,279.29,622.59,622.59S3476.22,1947.32,3132.92,1947.32Z"/><path class="cls-2" d="M5176.28,2411.38h-19.74V1927.58h9.87c162.62,0,315.06-63.77,429.26-179.57s175.8-269.15,173.53-431.87c-4.52-325.43-273-592-598.53-594.25h-4.32c-211.32,0-403.22,107.35-514.05,287.84l-16.82-10.33c115.23-187.64,315.58-298.82,535.33-297.23,336.16,2.32,613.45,277.63,618.13,613.71,2.34,168-61.31,326.44-179.22,446-115.62,117.24-269.21,182.84-433.44,185.37Z"/><path class="cls-2" d="M3079.58,1178.95C3013,1198.41,2964.7,1255.12,2964.7,1322h41.51c0-44.24,30.2-82.32,73.37-99.35Z"/><path class="cls-2" d="M3179.4,1178.71v43.64c43.71,16.82,74.4,55.1,74.4,99.69h41.51C3295.32,1254.78,3246.46,1197.89,3179.4,1178.71Z"/><rect class="cls-2" x="2992.85" y="1167.16" width="86.73" height="35.58"/><rect class="cls-2" x="3179.4" y="1167.16" width="86.97" height="35.58"/><path class="cls-2" d="M3183,1237.93H3077V1132H3183Zm-82.22-23.72h58.5v-58.5h-58.5Z"/><path class="cls-2" d="M3041.45,1411.87H2935.51V1305.93h105.94Zm-82.22-23.72h58.5v-58.5h-58.5Z"/><path class="cls-2" d="M3325,1411.87H3219V1305.93H3325Zm-82.22-23.72h58.5v-58.5h-58.5Z"/><path class="cls-2" d="M2964.42,1229.09a44.43,44.43,0,1,1,44.44-44.44A44.48,44.48,0,0,1,2964.42,1229.09Zm0-65.15a20.71,20.71,0,1,0,20.72,20.71A20.74,20.74,0,0,0,2964.42,1163.94Z"/><path class="cls-2" d="M3300.9,1229.09a44.43,44.43,0,1,1,44.44-44.44A44.48,44.48,0,0,1,3300.9,1229.09Zm0-65.15a20.71,20.71,0,1,0,20.72,20.71A20.74,20.74,0,0,0,3300.9,1163.94Z"/><path class="cls-2" d="M5394.88,1451.14H4952.41v-290h442.47ZM4990.55,1413h366.2v-213.7h-366.2Z"/><rect class="cls-2" x="5130.82" y="1435.03" width="85.65" height="47.98"/><rect class="cls-2" x="5090.81" y="1474.89" width="165.66" height="30.76"/><polygon class="cls-2" points="5203.6 1360.79 5141.19 1273.57 5073.44 1341.31 5060.77 1328.64 5143.46 1245.94 5205.88 1333.16 5274.42 1264.63 5287.09 1277.3 5203.6 1360.79"/><circle class="cls-2" cx="5141.12" cy="1260.96" r="27.61"/><circle class="cls-2" cx="5207.7" cy="1341.98" r="27.61"/><circle class="cls-2" cx="5282.17" cy="1272.14" r="27.61"/><circle class="cls-2" cx="5067.1" cy="1334.98" r="27.61"/></g></g></svg>